<?xml version="1.0" encoding="UTF-8" standalone="no"?>
<!-- Created with Inkscape (http://www.inkscape.org/) -->

<svg
   xmlns:dc="http://purl.org/dc/elements/1.1/"
   xmlns:cc="http://creativecommons.org/ns#"
   xmlns:rdf="http://www.w3.org/1999/02/22-rdf-syntax-ns#"
   xmlns:svg="http://www.w3.org/2000/svg"
   xmlns="http://www.w3.org/2000/svg"
   xmlns:sodipodi="http://sodipodi.sourceforge.net/DTD/sodipodi-0.dtd"
   xmlns:inkscape="http://www.inkscape.org/namespaces/inkscape"
   id="svg4136"
   version="1.1"
   inkscape:version="0.91 r13725"
   width="710.52631"
   height="710.52631"
   viewBox="0 0 710.52631 710.52631"
   sodipodi:docname="logo.svg"
   inkscape:export-filename="C:\Users\Tom\Pictures\logo2.png"
   inkscape:export-xdpi="92"
   inkscape:export-ydpi="92">
  <metadata
     id="metadata4142">
    <rdf:RDF>
      <cc:Work
         rdf:about="">
        <dc:format>image/svg+xml</dc:format>
        <dc:type
           rdf:resource="http://purl.org/dc/dcmitype/StillImage" />
        <dc:title />
      </cc:Work>
    </rdf:RDF>
  </metadata>
  <defs
     id="defs4140" />
  <sodipodi:namedview
     pagecolor="#ffffff"
     bordercolor="#666666"
     borderopacity="1"
     objecttolerance="10"
     gridtolerance="10"
     guidetolerance="10"
     inkscape:pageopacity="1"
     inkscape:pageshadow="2"
     inkscape:window-width="1920"
     inkscape:window-height="1057"
     id="namedview4138"
     showgrid="false"
     inkscape:zoom="0.90509668"
     inkscape:cx="-323.13075"
     inkscape:cy="421.34393"
     inkscape:window-x="-8"
     inkscape:window-y="-8"
     inkscape:window-maximized="1"
     inkscape:current-layer="svg4136" />
  <ellipse
     style="opacity:0.98999999;fill:none;fill-opacity:1;stroke:#666666;stroke-width:8;stroke-miterlimit:4;stroke-dasharray:none;stroke-opacity:1"
     id="path4145"
     cx="-356.30048"
     cy="356.30173"
     rx="352.75192"
     ry="352.20377"
     transform="scale(-1,1)" />
  <rect
     style="opacity:0.98999999;fill:#333333;fill-opacity:1;stroke:#ffffff;stroke-width:2;stroke-miterlimit:4;stroke-dasharray:none;stroke-opacity:1"
     id="rect4410"
     width="25.36195"
     height="0.29376775"
     x="442.81372"
     y="-250.82379"
     rx="47.0285"
     ry="0.173704"
     transform="matrix(0.34202014,0.93969262,-0.93969262,0.34202014,0,0)" />
  <ellipse
     style="opacity:1;fill:#333300;fill-opacity:0;stroke:#666666;stroke-width:8;stroke-miterlimit:4;stroke-dasharray:none;stroke-opacity:1"
     id="path4156"
     cx="457.4975"
     cy="386.2067"
     rx="59.000206"
     ry="60.37429" />
  <path
     style="fill:none;fill-rule:evenodd;stroke:#666666;stroke-width:8;stroke-linecap:butt;stroke-linejoin:miter;stroke-miterlimit:4;stroke-dasharray:none;stroke-opacity:1;fill-opacity:1"
     d="m 395.13269,350.06376 c 0,0 -27.32064,-118.13626 -87.69943,-107.05759 -60.37878,11.07868 -121.86543,-69.79566 -129.62051,-111.89463 0,0 81.98221,33.23603 109.67889,0.83091 0,0 -77.55073,8.86293 -87.26001,-8.44842 0,0 76.27392,-60.325303 115.86248,-54.976045 36.61922,4.948037 43.47763,28.621232 66.19567,96.383665 22.71804,67.76243 19.58452,97.1392 53.241,152.56412 -25.43333,6.9075 -40.39809,32.59799 -40.39809,32.59799 z"
     id="path4159"
     inkscape:connector-curvature="0"
     sodipodi:nodetypes="cscccsscc" />
  <path
     style="opacity:0.98999999;fill:none;fill-opacity:1;stroke:#666666;stroke-width:8.6897707;stroke-miterlimit:4;stroke-dasharray:none;stroke-opacity:1"
     id="path4154"
     sodipodi:type="arc"
     sodipodi:cx="312.21768"
     sodipodi:cy="94.800697"
     sodipodi:rx="6.6934233"
     sodipodi:ry="11.574106"
     sodipodi:start="0"
     sodipodi:end="3.1297593"
     sodipodi:open="true"
     d="M 318.91111,94.800697 A 6.6934233,11.574106 0 0 1 312.25728,106.3746 6.6934233,11.574106 0 0 1 305.52473,94.937655" />
  <path
     style="fill:none;fill-rule:evenodd;stroke:#666666;stroke-width:8;stroke-linecap:butt;stroke-linejoin:miter;stroke-miterlimit:4;stroke-dasharray:none;stroke-opacity:1"
     d="m 497.58638,451.90085 c 11.18848,61.21888 1.76876,127.63864 -34.36753,165.94257 -36.13629,38.30394 -84.86036,41.40917 -123.22575,7.85329 -38.36539,-33.55588 -58.72303,-97.08269 -51.48557,-160.66267 7.23746,-63.57999 40.62707,-114.53696 82.16067,-129.50583 l 12.45913,33.50696 c -10.1149,70.0392 51.66623,110.71627 114.45905,82.86568 z"
     id="path4235"
     inkscape:connector-curvature="0"
     sodipodi:nodetypes="csssccc" />
</svg>
